<svg id="export-svg" width="100%" xmlns="http://www.w3.org/2000/svg" style="max-width: 2390px; background: rgb(255, 255, 255);" viewBox="0 -56.18181848526001 2390 871.3455200195312" role="graphics-document document" aria-roledescription="timeline"><style xmlns="http://www.w3.org/1999/xhtml">p {margin: 0;}</style><style>#export-svg{font-family:arial,sans-serif;font-size:14px;fill:#000000;}@keyframes edge-animation-frame{from{stroke-dashoffset:0;}}@keyframes dash{to{stroke-dashoffset:0;}}#export-svg .edge-animation-slow{stroke-dasharray:9,5!important;stroke-dashoffset:900;animation:dash 50s linear infinite;stroke-linecap:round;}#export-svg .edge-animation-fast{stroke-dasharray:9,5!important;stroke-dashoffset:900;animation:dash 20s linear infinite;stroke-linecap:round;}#export-svg .error-icon{fill:#552222;}#export-svg .error-text{fill:#552222;stroke:#552222;}#export-svg .edge-thickness-normal{stroke-width:1px;}#export-svg .edge-thickness-thick{stroke-width:3.5px;}#export-svg .edge-pattern-solid{stroke-dasharray:0;}#export-svg .edge-thickness-invisible{stroke-width:0;fill:none;}#export-svg .edge-pattern-dashed{stroke-dasharray:3;}#export-svg .edge-pattern-dotted{stroke-dasharray:2;}#export-svg .marker{fill:#666;stroke:#666;}#export-svg .marker.cross{stroke:#666;}#export-svg svg{font-family:arial,sans-serif;font-size:14px;}#export-svg p{margin:0;}#export-svg .edge{stroke-width:3;}#export-svg .section--1 rect,#export-svg .section--1 path,#export-svg .section--1 circle,#export-svg .section--1 path{fill:#555;}#export-svg .section--1 text{fill:#F4F4F4;}#export-svg .node-icon--1{font-size:40px;color:#F4F4F4;}#export-svg .section-edge--1{stroke:#555;}#export-svg .edge-depth--1{stroke-width:17;}#export-svg .section--1 line{stroke:#aaaaaa;stroke-width:3;}#export-svg .lineWrapper line{stroke:#F4F4F4;}#export-svg .disabled,#export-svg .disabled circle,#export-svg .disabled text{fill:lightgray;}#export-svg .disabled text{fill:#efefef;}#export-svg .section-0 rect,#export-svg .section-0 path,#export-svg .section-0 circle,#export-svg .section-0 path{fill:#F4F4F4;}#export-svg .section-0 text{fill:#333;}#export-svg .node-icon-0{font-size:40px;color:#333;}#export-svg .section-edge-0{stroke:#F4F4F4;}#export-svg .edge-depth-0{stroke-width:14;}#export-svg .section-0 line{stroke:#0b0b0b;stroke-width:3;}#export-svg .lineWrapper line{stroke:#333;}#export-svg .disabled,#export-svg .disabled circle,#export-svg .disabled text{fill:lightgray;}#export-svg .disabled text{fill:#efefef;}#export-svg .section-1 rect,#export-svg .section-1 path,#export-svg .section-1 circle,#export-svg .section-1 path{fill:#555;}#export-svg .section-1 text{fill:#F4F4F4;}#export-svg .node-icon-1{font-size:40px;color:#F4F4F4;}#export-svg .section-edge-1{stroke:#555;}#export-svg .edge-depth-1{stroke-width:11;}#export-svg .section-1 line{stroke:#aaaaaa;stroke-width:3;}#export-svg .lineWrapper line{stroke:#F4F4F4;}#export-svg .disabled,#export-svg .disabled circle,#export-svg .disabled text{fill:lightgray;}#export-svg .disabled text{fill:#efefef;}#export-svg .section-2 rect,#export-svg .section-2 path,#export-svg .section-2 circle,#export-svg .section-2 path{fill:#BBB;}#export-svg .section-2 text{fill:#333;}#export-svg .node-icon-2{font-size:40px;color:#333;}#export-svg .section-edge-2{stroke:#BBB;}#export-svg .edge-depth-2{stroke-width:8;}#export-svg .section-2 line{stroke:#444444;stroke-width:3;}#export-svg .lineWrapper line{stroke:#333;}#export-svg .disabled,#export-svg .disabled circle,#export-svg .disabled text{fill:lightgray;}#export-svg .disabled text{fill:#efefef;}#export-svg .section-3 rect,#export-svg .section-3 path,#export-svg .section-3 circle,#export-svg .section-3 path{fill:#777;}#export-svg .section-3 text{fill:#333;}#export-svg .node-icon-3{font-size:40px;color:#333;}#export-svg .section-edge-3{stroke:#777;}#export-svg .edge-depth-3{stroke-width:5;}#export-svg .section-3 line{stroke:#888888;stroke-width:3;}#export-svg .lineWrapper line{stroke:#333;}#export-svg .disabled,#export-svg .disabled circle,#export-svg .disabled text{fill:lightgray;}#export-svg .disabled text{fill:#efefef;}#export-svg .section-4 rect,#export-svg .section-4 path,#export-svg .section-4 circle,#export-svg .section-4 path{fill:#999;}#export-svg .section-4 text{fill:#333;}#export-svg .node-icon-4{font-size:40px;color:#333;}#export-svg .section-edge-4{stroke:#999;}#export-svg .edge-depth-4{stroke-width:2;}#export-svg .section-4 line{stroke:#666666;stroke-width:3;}#export-svg .lineWrapper line{stroke:#333;}#export-svg .disabled,#export-svg .disabled circle,#export-svg .disabled text{fill:lightgray;}#export-svg .disabled text{fill:#efefef;}#export-svg .section-5 rect,#export-svg .section-5 path,#export-svg .section-5 circle,#export-svg .section-5 path{fill:#DDD;}#export-svg .section-5 text{fill:#333;}#export-svg .node-icon-5{font-size:40px;color:#333;}#export-svg .section-edge-5{stroke:#DDD;}#export-svg .edge-depth-5{stroke-width:-1;}#export-svg .section-5 line{stroke:#222222;stroke-width:3;}#export-svg .lineWrapper line{stroke:#333;}#export-svg .disabled,#export-svg .disabled circle,#export-svg .disabled text{fill:lightgray;}#export-svg .disabled text{fill:#efefef;}#export-svg .section-6 rect,#export-svg .section-6 path,#export-svg .section-6 circle,#export-svg .section-6 path{fill:#FFF;}#export-svg .section-6 text{fill:#333;}#export-svg .node-icon-6{font-size:40px;color:#333;}#export-svg .section-edge-6{stroke:#FFF;}#export-svg .edge-depth-6{stroke-width:-4;}#export-svg .section-6 line{stroke:#000000;stroke-width:3;}#export-svg .lineWrapper line{stroke:#333;}#export-svg .disabled,#export-svg .disabled circle,#export-svg .disabled text{fill:lightgray;}#export-svg .disabled text{fill:#efefef;}#export-svg .section-7 rect,#export-svg .section-7 path,#export-svg .section-7 circle,#export-svg .section-7 path{fill:#DDD;}#export-svg .section-7 text{fill:#333;}#export-svg .node-icon-7{font-size:40px;color:#333;}#export-svg .section-edge-7{stroke:#DDD;}#export-svg .edge-depth-7{stroke-width:-7;}#export-svg .section-7 line{stroke:#222222;stroke-width:3;}#export-svg .lineWrapper line{stroke:#333;}#export-svg .disabled,#export-svg .disabled circle,#export-svg .disabled text{fill:lightgray;}#export-svg .disabled text{fill:#efefef;}#export-svg .section-8 rect,#export-svg .section-8 path,#export-svg .section-8 circle,#export-svg .section-8 path{fill:#BBB;}#export-svg .section-8 text{fill:#333;}#export-svg .node-icon-8{font-size:40px;color:#333;}#export-svg .section-edge-8{stroke:#BBB;}#export-svg .edge-depth-8{stroke-width:-10;}#export-svg .section-8 line{stroke:#444444;stroke-width:3;}#export-svg .lineWrapper line{stroke:#333;}#export-svg .disabled,#export-svg .disabled circle,#export-svg .disabled text{fill:lightgray;}#export-svg .disabled text{fill:#efefef;}#export-svg .section-9 rect,#export-svg .section-9 path,#export-svg .section-9 circle,#export-svg .section-9 path{fill:#999;}#export-svg .section-9 text{fill:#333;}#export-svg .node-icon-9{font-size:40px;color:#333;}#export-svg .section-edge-9{stroke:#999;}#export-svg .edge-depth-9{stroke-width:-13;}#export-svg .section-9 line{stroke:#666666;stroke-width:3;}#export-svg .lineWrapper line{stroke:#333;}#export-svg .disabled,#export-svg .disabled circle,#export-svg .disabled text{fill:lightgray;}#export-svg .disabled text{fill:#efefef;}#export-svg .section-10 rect,#export-svg .section-10 path,#export-svg .section-10 circle,#export-svg .section-10 path{fill:#777;}#export-svg .section-10 text{fill:#333;}#export-svg .node-icon-10{font-size:40px;color:#333;}#export-svg .section-edge-10{stroke:#777;}#export-svg .edge-depth-10{stroke-width:-16;}#export-svg .section-10 line{stroke:#888888;stroke-width:3;}#export-svg .lineWrapper line{stroke:#333;}#export-svg .disabled,#export-svg .disabled circle,#export-svg .disabled text{fill:lightgray;}#export-svg .disabled text{fill:#efefef;}#export-svg .section-root rect,#export-svg .section-root path,#export-svg .section-root circle{fill:hsl(0, 0%, 70.6862745098%);}#export-svg .section-root text{fill:#333;}#export-svg .icon-container{height:100%;display:flex;justify-content:center;align-items:center;}#export-svg .edge{fill:none;}#export-svg .eventWrapper{filter:brightness(120%);}#export-svg .node .neo-node{stroke:#999;}#export-svg [data-look="neo"].node rect,#export-svg [data-look="neo"].cluster rect,#export-svg [data-look="neo"].node polygon{stroke:url(#export-svg-gradient);filter:drop-shadow( 1px 2px 2px rgba(185,185,185,1));}#export-svg [data-look="neo"].node path{stroke:url(#export-svg-gradient);stroke-width:1;}#export-svg [data-look="neo"].node .outer-path{filter:drop-shadow( 1px 2px 2px rgba(185,185,185,1));}#export-svg [data-look="neo"].node .neo-line path{stroke:#999;filter:none;}#export-svg [data-look="neo"].node circle{stroke:url(#export-svg-gradient);filter:drop-shadow( 1px 2px 2px rgba(185,185,185,1));}#export-svg [data-look="neo"].node circle .state-start{fill:#000000;}#export-svg [data-look="neo"].statediagram-cluster rect{fill:#eee;stroke:url(#export-svg-gradient);stroke-width:1;}#export-svg [data-look="neo"].icon-shape .icon{fill:url(#export-svg-gradient);filter:drop-shadow( 1px 2px 2px rgba(185,185,185,1));}#export-svg [data-look="neo"].icon-shape .icon-neo path{stroke:url(#export-svg-gradient);filter:drop-shadow( 1px 2px 2px rgba(185,185,185,1));}#export-svg :root{--mermaid-font-family:"trebuchet ms",verdana,arial,sans-serif;}</style><g/><g/><defs><marker id="arrowhead" refX="5" refY="2" markerWidth="6" markerHeight="4" orient="auto"><path d="M 0,0 V 4 L6,2 Z"/></marker></defs><g transform="translate(100, 50)"><g class="timeline-node section--1" data-look="neo"><g><path id="node-undefined" class="node-bkg node-undefined" d="M0 59.07272796630859 v-54.07272796630859 q0,-5,5,-5 h380 q5,0 ,5,5 v59.07272796630859 H0 Z"/><line class="node-line--1" x1="0" y1="64.07272796630859" x2="390" y2="64.07272796630859"/></g><g transform="translate(195, 10)"><text dy="1em" alignment-baseline="middle" dominant-baseline="middle" text-anchor="middle"><tspan x="0" dy="1em">French   and   Indian   War</tspan></text></g></g></g><g class="taskWrapper" transform="translate(100, 164.0727279663086)"><g class="timeline-node section--1" data-look="neo"><g><path id="node-undefined" class="node-bkg node-undefined" d="M0 59.07272796630859 v-54.07272796630859 q0,-5,5,-5 h180 q5,0 ,5,5 v59.07272796630859 H0 Z"/><line class="node-line--1" x1="0" y1="64.07272796630859" x2="190" y2="64.07272796630859"/></g><g transform="translate(95, 10)"><text dy="1em" alignment-baseline="middle" dominant-baseline="middle" text-anchor="middle"><tspan x="0" dy="1em">Year   1755</tspan></text></g></g></g><g class="lineWrapper"><line x1="195" y1="228.1454559326172" x2="195" y2="765.1636772155762" stroke-width="2" stroke="black" marker-end="url(#arrowhead)" stroke-dasharray="5,5"/></g><g class="eventWrapper" transform="translate(100, 364.0727279663086)"><g class="timeline-node section--1" data-look="neo"><g><path id="node-undefined" class="node-bkg node-undefined" d="M0 54.47273330688476 v-49.47273330688476 q0,-5,5,-5 h180 q5,0 ,5,5 v54.47273330688476 H0 Z"/><line class="node-line--1" x1="0" y1="59.47273330688476" x2="190" y2="59.47273330688476"/></g><g transform="translate(95, 10)"><text dy="1em" alignment-baseline="middle" dominant-baseline="middle" text-anchor="middle"><tspan x="0" dy="1em">Served   as   Surgeon's</tspan><tspan x="0" dy="1.1em">Mate</tspan></text></g></g></g><g class="taskWrapper" transform="translate(300, 164.0727279663086)"><g class="timeline-node section--1" data-look="neo"><g><path id="node-undefined" class="node-bkg node-undefined" d="M0 59.07272796630859 v-54.07272796630859 q0,-5,5,-5 h180 q5,0 ,5,5 v59.07272796630859 H0 Z"/><line class="node-line--1" x1="0" y1="64.07272796630859" x2="190" y2="64.07272796630859"/></g><g transform="translate(95, 10)"><text dy="1em" alignment-baseline="middle" dominant-baseline="middle" text-anchor="middle"><tspan x="0" dy="1em">Year   1758</tspan></text></g></g></g><g class="lineWrapper"><line x1="395" y1="228.1454559326172" x2="395" y2="765.1636772155762" stroke-width="2" stroke="black" marker-end="url(#arrowhead)" stroke-dasharray="5,5"/></g><g class="eventWrapper" transform="translate(300, 364.0727279663086)"><g class="timeline-node section--1" data-look="neo"><g><path id="node-undefined" class="node-bkg node-undefined" d="M0 45 v-40 q0,-5,5,-5 h180 q5,0 ,5,5 v45 H0 Z"/><line class="node-line--1" x1="0" y1="50" x2="190" y2="50"/></g><g transform="translate(95, 10)"><text dy="1em" alignment-baseline="middle" dominant-baseline="middle" text-anchor="middle"><tspan x="0" dy="1em">Service   description?</tspan></text></g></g></g><g transform="translate(500, 50)"><g class="timeline-node section-0" data-look="neo"><g><path id="node-undefined" class="node-bkg node-undefined" d="M0 59.07272796630859 v-54.07272796630859 q0,-5,5,-5 h1780 q5,0 ,5,5 v59.07272796630859 H0 Z"/><line class="node-line-0" x1="0" y1="64.07272796630859" x2="1790" y2="64.07272796630859"/></g><g transform="translate(895, 10)"><text dy="1em" alignment-baseline="middle" dominant-baseline="middle" text-anchor="middle"><tspan x="0" dy="1em">American   Revolution</tspan></text></g></g></g><g class="taskWrapper" transform="translate(500, 164.0727279663086)"><g class="timeline-node section-0" data-look="neo"><g><path id="node-undefined" class="node-bkg node-undefined" d="M0 59.07272796630859 v-54.07272796630859 q0,-5,5,-5 h180 q5,0 ,5,5 v59.07272796630859 H0 Z"/><line class="node-line-0" x1="0" y1="64.07272796630859" x2="190" y2="64.07272796630859"/></g><g transform="translate(95, 10)"><text dy="1em" alignment-baseline="middle" dominant-baseline="middle" text-anchor="middle"><tspan x="0" dy="1em">Year   1775</tspan></text></g></g></g><g class="lineWrapper"><line x1="595" y1="228.1454559326172" x2="595" y2="765.1636772155762" stroke-width="2" stroke="black" marker-end="url(#arrowhead)" stroke-dasharray="5,5"/></g><g class="eventWrapper" transform="translate(500, 364.0727279663086)"><g class="timeline-node section-0" data-look="neo"><g><path id="node-undefined" class="node-bkg node-undefined" d="M0 85.27273635864258 v-80.27273635864258 q0,-5,5,-5 h180 q5,0 ,5,5 v85.27273635864258 H0 Z"/><line class="node-line-0" x1="0" y1="90.27273635864258" x2="190" y2="90.27273635864258"/></g><g transform="translate(95, 10)"><text dy="1em" alignment-baseline="middle" dominant-baseline="middle" text-anchor="middle"><tspan x="0" dy="1em">19   April   1775   “the   shot</tspan><tspan x="0" dy="1.1em">heard   ‘round   the   world”.</tspan><tspan x="0" dy="1.1em">The   battles   of   Lexington</tspan><tspan x="0" dy="1.1em">and   Concord</tspan></text></g></g></g><g class="eventWrapper" transform="translate(500, 464.3454643249512)"><g class="timeline-node section-0" data-look="neo"><g><path id="node-undefined" class="node-bkg node-undefined" d="M0 69.87273483276367 v-64.87273483276367 q0,-5,5,-5 h180 q5,0 ,5,5 v69.87273483276367 H0 Z"/><line class="node-line-0" x1="0" y1="74.87273483276367" x2="190" y2="74.87273483276367"/></g><g transform="translate(95, 10)"><text dy="1em" alignment-baseline="middle" dominant-baseline="middle" text-anchor="middle"><tspan x="0" dy="1em">May   1775   Timothy   Mix</tspan><tspan x="0" dy="1.1em">(1740-1824)   enlists   in</tspan><tspan x="0" dy="1.1em">Connecticut</tspan></text></g></g></g><g class="taskWrapper" transform="translate(700, 164.0727279663086)"><g class="timeline-node section-0" data-look="neo"><g><path id="node-undefined" class="node-bkg node-undefined" d="M0 59.07272796630859 v-54.07272796630859 q0,-5,5,-5 h180 q5,0 ,5,5 v59.07272796630859 H0 Z"/><line class="node-line-0" x1="0" y1="64.07272796630859" x2="190" y2="64.07272796630859"/></g><g transform="translate(95, 10)"><text dy="1em" alignment-baseline="middle" dominant-baseline="middle" text-anchor="middle"><tspan x="0" dy="1em">Year   1776</tspan></text></g></g></g><g class="lineWrapper"><line x1="795" y1="228.1454559326172" x2="795" y2="765.1636772155762" stroke-width="2" stroke="black" marker-end="url(#arrowhead)" stroke-dasharray="5,5"/></g><g class="eventWrapper" transform="translate(700, 364.0727279663086)"><g class="timeline-node section-0" data-look="neo"><g><path id="node-undefined" class="node-bkg node-undefined" d="M0 69.87273483276367 v-64.87273483276367 q0,-5,5,-5 h180 q5,0 ,5,5 v69.87273483276367 H0 Z"/><line class="node-line-0" x1="0" y1="74.87273483276367" x2="190" y2="74.87273483276367"/></g><g transform="translate(95, 10)"><text dy="1em" alignment-baseline="middle" dominant-baseline="middle" text-anchor="middle"><tspan x="0" dy="1em">4   July   1776   The</tspan><tspan x="0" dy="1.1em">Declaration   of</tspan><tspan x="0" dy="1.1em">Independence</tspan></text></g></g></g><g class="eventWrapper" transform="translate(700, 448.9454627990723)"><g class="timeline-node section-0" data-look="neo"><g><path id="node-undefined" class="node-bkg node-undefined" d="M0 54.47273330688476 v-49.47273330688476 q0,-5,5,-5 h180 q5,0 ,5,5 v54.47273330688476 H0 Z"/><line class="node-line-0" x1="0" y1="59.47273330688476" x2="190" y2="59.47273330688476"/></g><g transform="translate(95, 10)"><text dy="1em" alignment-baseline="middle" dominant-baseline="middle" text-anchor="middle"><tspan x="0" dy="1em">1776   Timothy   Mix</tspan><tspan x="0" dy="1.1em">serves   with   (tbd)</tspan></text></g></g></g><g class="taskWrapper" transform="translate(900, 164.0727279663086)"><g class="timeline-node section-0" data-look="neo"><g><path id="node-undefined" class="node-bkg node-undefined" d="M0 59.07272796630859 v-54.07272796630859 q0,-5,5,-5 h180 q5,0 ,5,5 v59.07272796630859 H0 Z"/><line class="node-line-0" x1="0" y1="64.07272796630859" x2="190" y2="64.07272796630859"/></g><g transform="translate(95, 10)"><text dy="1em" alignment-baseline="middle" dominant-baseline="middle" text-anchor="middle"><tspan x="0" dy="1em">Year   1777</tspan></text></g></g></g><g class="lineWrapper"><line x1="995" y1="228.1454559326172" x2="995" y2="765.1636772155762" stroke-width="2" stroke="black" marker-end="url(#arrowhead)" stroke-dasharray="5,5"/></g><g class="eventWrapper" transform="translate(900, 364.0727279663086)"><g class="timeline-node section-0" data-look="neo"><g><path id="node-undefined" class="node-bkg node-undefined" d="M0 131.47274475097657 v-126.47274475097657 q0,-5,5,-5 h180 q5,0 ,5,5 v131.47274475097657 H0 Z"/><line class="node-line-0" x1="0" y1="136.47274475097657" x2="190" y2="136.47274475097657"/></g><g transform="translate(95, 10)"><text dy="1em" alignment-baseline="middle" dominant-baseline="middle" text-anchor="middle"><tspan x="0" dy="1em">1777   Timothy   Mix</tspan><tspan x="0" dy="1.1em">serves   with   (Captain</tspan><tspan x="0" dy="1.1em">Jonathan   Brown’s   Co.</tspan><tspan x="0" dy="1.1em">in   the   Battalion   of</tspan><tspan x="0" dy="1.1em">Artillery   commanded   by</tspan><tspan x="0" dy="1.1em">Col.   John   Lamb)   as   a</tspan><tspan x="0" dy="1.1em">Sergeant</tspan></text></g></g></g><g class="eventWrapper" transform="translate(900, 510.5454727172852)"><g class="timeline-node section-0" data-look="neo"><g><path id="node-undefined" class="node-bkg node-undefined" d="M0 85.27273635864258 v-80.27273635864258 q0,-5,5,-5 h180 q5,0 ,5,5 v85.27273635864258 H0 Z"/><line class="node-line-0" x1="0" y1="90.27273635864258" x2="190" y2="90.27273635864258"/></g><g transform="translate(95, 10)"><text dy="1em" alignment-baseline="middle" dominant-baseline="middle" text-anchor="middle"><tspan x="0" dy="1em">A   Company   Muster   Roll</tspan><tspan x="0" dy="1.1em">dated   July   1777   has</tspan><tspan x="0" dy="1.1em">remarks   “prisoner”</tspan><tspan x="0" dy="1.1em">0860.jpg</tspan></text></g></g></g><g class="eventWrapper" transform="translate(900, 610.8182090759277)"><g class="timeline-node section-0" data-look="neo"><g><path id="node-undefined" class="node-bkg node-undefined" d="M0 85.27273635864258 v-80.27273635864258 q0,-5,5,-5 h180 q5,0 ,5,5 v85.27273635864258 H0 Z"/><line class="node-line-0" x1="0" y1="90.27273635864258" x2="190" y2="90.27273635864258"/></g><g transform="translate(95, 10)"><text dy="1em" alignment-baseline="middle" dominant-baseline="middle" text-anchor="middle"><tspan x="0" dy="1em">6   Oct   1777   taken</tspan><tspan x="0" dy="1.1em">prisoner   at   the   Storming</tspan><tspan x="0" dy="1.1em">(or   Battle)   of   Fort</tspan><tspan x="0" dy="1.1em">Montgomery</tspan></text></g></g></g><g class="taskWrapper" transform="translate(1100, 164.0727279663086)"><g class="timeline-node section-0" data-look="neo"><g><path id="node-undefined" class="node-bkg node-undefined" d="M0 59.07272796630859 v-54.07272796630859 q0,-5,5,-5 h180 q5,0 ,5,5 v59.07272796630859 H0 Z"/><line class="node-line-0" x1="0" y1="64.07272796630859" x2="190" y2="64.07272796630859"/></g><g transform="translate(95, 10)"><text dy="1em" alignment-baseline="middle" dominant-baseline="middle" text-anchor="middle"><tspan x="0" dy="1em">Year   1778</tspan></text></g></g></g><g class="lineWrapper"><line x1="1195" y1="228.1454559326172" x2="1195" y2="765.1636772155762" stroke-width="2" stroke="black" marker-end="url(#arrowhead)" stroke-dasharray="5,5"/></g><g class="eventWrapper" transform="translate(1100, 364.0727279663086)"><g class="timeline-node section-0" data-look="neo"><g><path id="node-undefined" class="node-bkg node-undefined" d="M0 116.07273559570312 v-111.07273559570312 q0,-5,5,-5 h180 q5,0 ,5,5 v116.07273559570312 H0 Z"/><line class="node-line-0" x1="0" y1="121.07273559570312" x2="190" y2="121.07273559570312"/></g><g transform="translate(95, 10)"><text dy="1em" alignment-baseline="middle" dominant-baseline="middle" text-anchor="middle"><tspan x="0" dy="1em">1778   Timothy   Mix</tspan><tspan x="0" dy="1.1em">serves   with   (Captain</tspan><tspan x="0" dy="1.1em">Jonathan   Brown’s   Co.,</tspan><tspan x="0" dy="1.1em">Colonel   John   Lamb’s</tspan><tspan x="0" dy="1.1em">Regiment   of   Artillery)   as</tspan><tspan x="0" dy="1.1em">a   Sergeant</tspan></text></g></g></g><g class="eventWrapper" transform="translate(1100, 495.14546356201174)"><g class="timeline-node section-0" data-look="neo"><g><path id="node-undefined" class="node-bkg node-undefined" d="M0 69.87273483276367 v-64.87273483276367 q0,-5,5,-5 h180 q5,0 ,5,5 v69.87273483276367 H0 Z"/><line class="node-line-0" x1="0" y1="74.87273483276367" x2="190" y2="74.87273483276367"/></g><g transform="translate(95, 10)"><text dy="1em" alignment-baseline="middle" dominant-baseline="middle" text-anchor="middle"><tspan x="0" dy="1em">he   is   returned   around</tspan><tspan x="0" dy="1.1em">April   1778   from   being   a</tspan><tspan x="0" dy="1.1em">prisoner</tspan></text></g></g></g><g class="eventWrapper" transform="translate(1100, 580.0181983947754)"><g class="timeline-node section-0" data-look="neo"><g><path id="node-undefined" class="node-bkg node-undefined" d="M0 85.27273635864258 v-80.27273635864258 q0,-5,5,-5 h180 q5,0 ,5,5 v85.27273635864258 H0 Z"/><line class="node-line-0" x1="0" y1="90.27273635864258" x2="190" y2="90.27273635864258"/></g><g transform="translate(95, 10)"><text dy="1em" alignment-baseline="middle" dominant-baseline="middle" text-anchor="middle"><tspan x="0" dy="1em">He   is   promoted   from   a</tspan><tspan x="0" dy="1.1em">Sergt.   to   a   2nd   Lieut.   on</tspan><tspan x="0" dy="1.1em">Sepr   12,   1778   in   this</tspan><tspan x="0" dy="1.1em">Compy</tspan></text></g></g></g><g class="taskWrapper" transform="translate(1300, 164.0727279663086)"><g class="timeline-node section-0" data-look="neo"><g><path id="node-undefined" class="node-bkg node-undefined" d="M0 59.07272796630859 v-54.07272796630859 q0,-5,5,-5 h180 q5,0 ,5,5 v59.07272796630859 H0 Z"/><line class="node-line-0" x1="0" y1="64.07272796630859" x2="190" y2="64.07272796630859"/></g><g transform="translate(95, 10)"><text dy="1em" alignment-baseline="middle" dominant-baseline="middle" text-anchor="middle"><tspan x="0" dy="1em">Year   1779</tspan></text></g></g></g><g class="lineWrapper"><line x1="1395" y1="228.1454559326172" x2="1395" y2="765.1636772155762" stroke-width="2" stroke="black" marker-end="url(#arrowhead)" stroke-dasharray="5,5"/></g><g class="eventWrapper" transform="translate(1300, 364.0727279663086)"><g class="timeline-node section-0" data-look="neo"><g><path id="node-undefined" class="node-bkg node-undefined" d="M0 177.6727264404297 v-172.6727264404297 q0,-5,5,-5 h180 q5,0 ,5,5 v177.6727264404297 H0 Z"/><line class="node-line-0" x1="0" y1="182.6727264404297" x2="190" y2="182.6727264404297"/></g><g transform="translate(95, 10)"><text dy="1em" alignment-baseline="middle" dominant-baseline="middle" text-anchor="middle"><tspan x="0" dy="1em">1779   Timothy   Mix</tspan><tspan x="0" dy="1.1em">serves   with   (Captain</tspan><tspan x="0" dy="1.1em">Jonathan   Brown’s   Co.,</tspan><tspan x="0" dy="1.1em">Colonel   John   Lamb’s</tspan><tspan x="0" dy="1.1em">Regiment   of   Artillery)   as</tspan><tspan x="0" dy="1.1em">a   Sergeant   then   2nd</tspan><tspan x="0" dy="1.1em">Lieutenant   (his   rank   is</tspan><tspan x="0" dy="1.1em">updated   several   months</tspan><tspan x="0" dy="1.1em">after   perhaps   being</tspan><tspan x="0" dy="1.1em">given   a   field   promotion)</tspan></text></g></g></g><g class="eventWrapper" transform="translate(1300, 556.7454544067383)"><g class="timeline-node section-0" data-look="neo"><g><path id="node-undefined" class="node-bkg node-undefined" d="M0 69.87273483276367 v-64.87273483276367 q0,-5,5,-5 h180 q5,0 ,5,5 v69.87273483276367 H0 Z"/><line class="node-line-0" x1="0" y1="74.87273483276367" x2="190" y2="74.87273483276367"/></g><g transform="translate(95, 10)"><text dy="1em" alignment-baseline="middle" dominant-baseline="middle" text-anchor="middle"><tspan x="0" dy="1em">On   command   Gen’l</tspan><tspan x="0" dy="1.1em">Poors   Brigade   starting</tspan><tspan x="0" dy="1.1em">December   1779</tspan></text></g></g></g><g class="eventWrapper" transform="translate(1300, 641.6181892395019)"><g class="timeline-node section-0" data-look="neo"><g><path id="node-undefined" class="node-bkg node-undefined" d="M0 54.47273330688476 v-49.47273330688476 q0,-5,5,-5 h180 q5,0 ,5,5 v54.47273330688476 H0 Z"/><line class="node-line-0" x1="0" y1="59.47273330688476" x2="190" y2="59.47273330688476"/></g><g transform="translate(95, 10)"><text dy="1em" alignment-baseline="middle" dominant-baseline="middle" text-anchor="middle"><tspan x="0" dy="1em">Doctor   Timothy   Mix   dies</tspan><tspan x="0" dy="1.1em">15   Dec   1779</tspan></text></g></g></g><g class="taskWrapper" transform="translate(1500, 164.0727279663086)"><g class="timeline-node section-0" data-look="neo"><g><path id="node-undefined" class="node-bkg node-undefined" d="M0 59.07272796630859 v-54.07272796630859 q0,-5,5,-5 h180 q5,0 ,5,5 v59.07272796630859 H0 Z"/><line class="node-line-0" x1="0" y1="64.07272796630859" x2="190" y2="64.07272796630859"/></g><g transform="translate(95, 10)"><text dy="1em" alignment-baseline="middle" dominant-baseline="middle" text-anchor="middle"><tspan x="0" dy="1em">Year   1780</tspan></text></g></g></g><g class="lineWrapper"><line x1="1595" y1="228.1454559326172" x2="1595" y2="765.1636772155762" stroke-width="2" stroke="black" marker-end="url(#arrowhead)" stroke-dasharray="5,5"/></g><g class="eventWrapper" transform="translate(1500, 364.0727279663086)"><g class="timeline-node section-0" data-look="neo"><g><path id="node-undefined" class="node-bkg node-undefined" d="M0 146.87273864746095 v-141.87273864746095 q0,-5,5,-5 h180 q5,0 ,5,5 v146.87273864746095 H0 Z"/><line class="node-line-0" x1="0" y1="151.87273864746095" x2="190" y2="151.87273864746095"/></g><g transform="translate(95, 10)"><text dy="1em" alignment-baseline="middle" dominant-baseline="middle" text-anchor="middle"><tspan x="0" dy="1em">1780   Timothy   Mix</tspan><tspan x="0" dy="1.1em">serves   with   (Captain</tspan><tspan x="0" dy="1.1em">Joseph   Thomas’</tspan><tspan x="0" dy="1.1em">Company   in   the   2d</tspan><tspan x="0" dy="1.1em">Regiment   of   Artillery</tspan><tspan x="0" dy="1.1em">commanded   by   Col.</tspan><tspan x="0" dy="1.1em">John   Lamb)   as   a   2nd</tspan><tspan x="0" dy="1.1em">Lieutenant</tspan></text></g></g></g><g class="eventWrapper" transform="translate(1500, 525.9454666137696)"><g class="timeline-node section-0" data-look="neo"><g><path id="node-undefined" class="node-bkg node-undefined" d="M0 69.87273483276367 v-64.87273483276367 q0,-5,5,-5 h180 q5,0 ,5,5 v69.87273483276367 H0 Z"/><line class="node-line-0" x1="0" y1="74.87273483276367" x2="190" y2="74.87273483276367"/></g><g transform="translate(95, 10)"><text dy="1em" alignment-baseline="middle" dominant-baseline="middle" text-anchor="middle"><tspan x="0" dy="1em">On   command   Gen’l</tspan><tspan x="0" dy="1.1em">Poors   Brigade   since</tspan><tspan x="0" dy="1.1em">December   1779</tspan></text></g></g></g><g class="eventWrapper" transform="translate(1500, 610.8182014465332)"><g class="timeline-node section-0" data-look="neo"><g><path id="node-undefined" class="node-bkg node-undefined" d="M0 69.87273483276367 v-64.87273483276367 q0,-5,5,-5 h180 q5,0 ,5,5 v69.87273483276367 H0 Z"/><line class="node-line-0" x1="0" y1="74.87273483276367" x2="190" y2="74.87273483276367"/></g><g transform="translate(95, 10)"><text dy="1em" alignment-baseline="middle" dominant-baseline="middle" text-anchor="middle"><tspan x="0" dy="1em">On   command   West</tspan><tspan x="0" dy="1.1em">Point   between   February</tspan><tspan x="0" dy="1.1em">and   August   1780</tspan></text></g></g></g><g class="taskWrapper" transform="translate(1700, 164.0727279663086)"><g class="timeline-node section-0" data-look="neo"><g><path id="node-undefined" class="node-bkg node-undefined" d="M0 59.07272796630859 v-54.07272796630859 q0,-5,5,-5 h180 q5,0 ,5,5 v59.07272796630859 H0 Z"/><line class="node-line-0" x1="0" y1="64.07272796630859" x2="190" y2="64.07272796630859"/></g><g transform="translate(95, 10)"><text dy="1em" alignment-baseline="middle" dominant-baseline="middle" text-anchor="middle"><tspan x="0" dy="1em">Year   1781</tspan></text></g></g></g><g class="lineWrapper"><line x1="1795" y1="228.1454559326172" x2="1795" y2="765.1636772155762" stroke-width="2" stroke="black" marker-end="url(#arrowhead)" stroke-dasharray="5,5"/></g><g class="eventWrapper" transform="translate(1700, 364.0727279663086)"><g class="timeline-node section-0" data-look="neo"><g><path id="node-undefined" class="node-bkg node-undefined" d="M0 146.87273864746095 v-141.87273864746095 q0,-5,5,-5 h180 q5,0 ,5,5 v146.87273864746095 H0 Z"/><line class="node-line-0" x1="0" y1="151.87273864746095" x2="190" y2="151.87273864746095"/></g><g transform="translate(95, 10)"><text dy="1em" alignment-baseline="middle" dominant-baseline="middle" text-anchor="middle"><tspan x="0" dy="1em">1781   Timothy   Mix</tspan><tspan x="0" dy="1.1em">serves   with   (Captain</tspan><tspan x="0" dy="1.1em">Joseph   Thomas’</tspan><tspan x="0" dy="1.1em">Company   in   the   2d</tspan><tspan x="0" dy="1.1em">Regiment   of   Artillery</tspan><tspan x="0" dy="1.1em">commanded   by   Col.</tspan><tspan x="0" dy="1.1em">John   Lamb)   as   a   2nd</tspan><tspan x="0" dy="1.1em">Lieutenant</tspan></text></g></g></g><g class="eventWrapper" transform="translate(1700, 525.9454666137696)"><g class="timeline-node section-0" data-look="neo"><g><path id="node-undefined" class="node-bkg node-undefined" d="M0 162.27273254394532 v-157.27273254394532 q0,-5,5,-5 h180 q5,0 ,5,5 v162.27273254394532 H0 Z"/><line class="node-line-0" x1="0" y1="167.27273254394532" x2="190" y2="167.27273254394532"/></g><g transform="translate(95, 10)"><text dy="1em" alignment-baseline="middle" dominant-baseline="middle" text-anchor="middle"><tspan x="0" dy="1em">Timothy   Mix   the</tspan><tspan x="0" dy="1.1em">youngest   is   named   as   a</tspan><tspan x="0" dy="1.1em">British   prisoner   who</tspan><tspan x="0" dy="1.1em">was   captured   from   the</tspan><tspan x="0" dy="1.1em">“privateer   schooner</tspan><tspan x="0" dy="1.1em">Young   Cromwell”,</tspan><tspan x="0" dy="1.1em">captured   in   October</tspan><tspan x="0" dy="1.1em">1781.   He   died   between</tspan><tspan x="0" dy="1.1em">then   and   April   1782.</tspan></text></g></g></g><g class="taskWrapper" transform="translate(1900, 164.0727279663086)"><g class="timeline-node section-0" data-look="neo"><g><path id="node-undefined" class="node-bkg node-undefined" d="M0 59.07272796630859 v-54.07272796630859 q0,-5,5,-5 h180 q5,0 ,5,5 v59.07272796630859 H0 Z"/><line class="node-line-0" x1="0" y1="64.07272796630859" x2="190" y2="64.07272796630859"/></g><g transform="translate(95, 10)"><text dy="1em" alignment-baseline="middle" dominant-baseline="middle" text-anchor="middle"><tspan x="0" dy="1em">Year   1782</tspan></text></g></g></g><g class="lineWrapper"><line x1="1995" y1="228.1454559326172" x2="1995" y2="765.1636772155762" stroke-width="2" stroke="black" marker-end="url(#arrowhead)" stroke-dasharray="5,5"/></g><g class="eventWrapper" transform="translate(1900, 364.0727279663086)"><g class="timeline-node section-0" data-look="neo"><g><path id="node-undefined" class="node-bkg node-undefined" d="M0 131.47274475097657 v-126.47274475097657 q0,-5,5,-5 h180 q5,0 ,5,5 v131.47274475097657 H0 Z"/><line class="node-line-0" x1="0" y1="136.47274475097657" x2="190" y2="136.47274475097657"/></g><g transform="translate(95, 10)"><text dy="1em" alignment-baseline="middle" dominant-baseline="middle" text-anchor="middle"><tspan x="0" dy="1em">1782   Timothy   Mix</tspan><tspan x="0" dy="1.1em">serves   with   (Captain</tspan><tspan x="0" dy="1.1em">Joseph   Thomas’</tspan><tspan x="0" dy="1.1em">Company   in   the   2d</tspan><tspan x="0" dy="1.1em">Regiment   of   Artillery</tspan><tspan x="0" dy="1.1em">commanded   by   Col.</tspan><tspan x="0" dy="1.1em">John   Lamb)</tspan></text></g></g></g><g class="eventWrapper" transform="translate(1900, 510.5454727172852)"><g class="timeline-node section-0" data-look="neo"><g><path id="node-undefined" class="node-bkg node-undefined" d="M0 69.87273483276367 v-64.87273483276367 q0,-5,5,-5 h180 q5,0 ,5,5 v69.87273483276367 H0 Z"/><line class="node-line-0" x1="0" y1="74.87273483276367" x2="190" y2="74.87273483276367"/></g><g transform="translate(95, 10)"><text dy="1em" alignment-baseline="middle" dominant-baseline="middle" text-anchor="middle"><tspan x="0" dy="1em">On   Command   at</tspan><tspan x="0" dy="1.1em">Springfield   starting   by</tspan><tspan x="0" dy="1.1em">February</tspan></text></g></g></g><g class="eventWrapper" transform="translate(1900, 595.4182075500488)"><g class="timeline-node section-0" data-look="neo"><g><path id="node-undefined" class="node-bkg node-undefined" d="M0 69.87273483276367 v-64.87273483276367 q0,-5,5,-5 h180 q5,0 ,5,5 v69.87273483276367 H0 Z"/><line class="node-line-0" x1="0" y1="74.87273483276367" x2="190" y2="74.87273483276367"/></g><g transform="translate(95, 10)"><text dy="1em" alignment-baseline="middle" dominant-baseline="middle" text-anchor="middle"><tspan x="0" dy="1em">20   September   1782</tspan><tspan x="0" dy="1.1em">appointed   1st</tspan><tspan x="0" dy="1.1em">Lieutenant</tspan></text></g></g></g><g class="taskWrapper" transform="translate(2100, 164.0727279663086)"><g class="timeline-node section-0" data-look="neo"><g><path id="node-undefined" class="node-bkg node-undefined" d="M0 59.07272796630859 v-54.07272796630859 q0,-5,5,-5 h180 q5,0 ,5,5 v59.07272796630859 H0 Z"/><line class="node-line-0" x1="0" y1="64.07272796630859" x2="190" y2="64.07272796630859"/></g><g transform="translate(95, 10)"><text dy="1em" alignment-baseline="middle" dominant-baseline="middle" text-anchor="middle"><tspan x="0" dy="1em">Year   1783</tspan></text></g></g></g><g class="lineWrapper"><line x1="2195" y1="228.1454559326172" x2="2195" y2="765.1636772155762" stroke-width="2" stroke="black" marker-end="url(#arrowhead)" stroke-dasharray="5,5"/></g><g class="eventWrapper" transform="translate(2100, 364.0727279663086)"><g class="timeline-node section-0" data-look="neo"><g><path id="node-undefined" class="node-bkg node-undefined" d="M0 131.47274475097657 v-126.47274475097657 q0,-5,5,-5 h180 q5,0 ,5,5 v131.47274475097657 H0 Z"/><line class="node-line-0" x1="0" y1="136.47274475097657" x2="190" y2="136.47274475097657"/></g><g transform="translate(95, 10)"><text dy="1em" alignment-baseline="middle" dominant-baseline="middle" text-anchor="middle"><tspan x="0" dy="1em">1783   Timothy   Mix</tspan><tspan x="0" dy="1.1em">serves   with   (Captain</tspan><tspan x="0" dy="1.1em">Joseph   Thomas’</tspan><tspan x="0" dy="1.1em">Company   in   the   2d</tspan><tspan x="0" dy="1.1em">Regiment   of   Artillery</tspan><tspan x="0" dy="1.1em">commanded   by   Col.</tspan><tspan x="0" dy="1.1em">John   Lamb)</tspan></text></g></g></g><g class="eventWrapper" transform="translate(2100, 510.5454727172852)"><g class="timeline-node section-0" data-look="neo"><g><path id="node-undefined" class="node-bkg node-undefined" d="M0 100.67274169921875 v-95.67274169921875 q0,-5,5,-5 h180 q5,0 ,5,5 v100.67274169921875 H0 Z"/><line class="node-line-0" x1="0" y1="105.67274169921875" x2="190" y2="105.67274169921875"/></g><g transform="translate(95, 10)"><text dy="1em" alignment-baseline="middle" dominant-baseline="middle" text-anchor="middle"><tspan x="0" dy="1em">03   September   1783</tspan><tspan x="0" dy="1.1em">The   signing   of   the</tspan><tspan x="0" dy="1.1em">Treaty   of   Paris   marks</tspan><tspan x="0" dy="1.1em">the   official   end   of   the</tspan><tspan x="0" dy="1.1em">war</tspan></text></g></g></g><g class="eventWrapper" transform="translate(2100, 626.2182144165039)"><g class="timeline-node section-0" data-look="neo"><g><path id="node-undefined" class="node-bkg node-undefined" d="M0 69.87273483276367 v-64.87273483276367 q0,-5,5,-5 h180 q5,0 ,5,5 v69.87273483276367 H0 Z"/><line class="node-line-0" x1="0" y1="74.87273483276367" x2="190" y2="74.87273483276367"/></g><g transform="translate(95, 10)"><text dy="1em" alignment-baseline="middle" dominant-baseline="middle" text-anchor="middle"><tspan x="0" dy="1em">20   Sep   1783   resigned</tspan><tspan x="0" dy="1.1em">as   1st   Lieut.   in   Col.</tspan><tspan x="0" dy="1.1em">Lamb's   Artillery</tspan></text></g></g></g><text x="250" font-size="4ex" font-weight="bold" y="20">Timeline for Timothy Mix</text><g class="lineWrapper"><line x1="50" y1="278.1454559326172" x2="2340" y2="278.1454559326172" stroke-width="4" stroke="black" marker-end="url(#arrowhead)"/></g><linearGradient id="export-svg-gradient" gradientUnits="objectBoundingBox" x1="0%" y1="0%" x2="100%" y2="0%"><stop offset="0%" stop-color="hsl(0, 0%, 83.3333333333%)" stop-opacity="1"/><stop offset="100%" stop-color="hsl(0, 0%, 88.9215686275%)" stop-opacity="1"/></linearGradient></svg>